<svg width="42" height="41" viewBox="0 0 42 41" fill="none" xmlns="http://www.w3.org/2000/svg">
<g id="about_me">
<path id="Ellipse 50" d="M29.9177 9.87805C29.9177 14.7723 25.9095 18.7561 20.9451 18.7561C15.9807 18.7561 11.9725 14.7723 11.9725 9.87805C11.9725 4.98379 15.9807 1 20.9451 1C25.9095 1 29.9177 4.98379 29.9177 9.87805Z" stroke="#EC4899" stroke-width="2" stroke-linecap="round"/>
<path id="Rectangle 4228" d="M4.26952 27.7275C5.42164 25.7041 7.65765 24.6951 9.98605 24.6951H31.9042C34.2326 24.6951 36.4686 25.7041 37.6208 27.7275C39.0176 30.1806 40.6518 33.9675 40.8666 38.5112C40.8927 39.0628 40.4426 39.5121 39.8903 39.5121H2C1.44771 39.5121 0.99762 39.0628 1.0237 38.5112C1.23845 33.9675 2.87269 30.1806 4.26952 27.7275Z" stroke="#EC4899" stroke-width="2" stroke-linecap="round"/>
</g>
</svg>
