<svg width="42" height="32" viewBox="0 0 42 32" fill="none" xmlns="http://www.w3.org/2000/svg">
<path fill-rule="evenodd" clip-rule="evenodd" d="M37 2H5C3.34315 2 2 3.34315 2 5V27C2 28.6569 3.34315 30 5 30H37C38.6569 30 40 28.6569 40 27V5C40 3.34315 38.6569 2 37 2ZM5 0C2.23858 0 0 2.23858 0 5V27C0 29.7614 2.23858 32 5 32H37C39.7614 32 42 29.7614 42 27V5C42 2.23858 39.7614 0 37 0H5Z" fill="#EC4899"/>
<path fill-rule="evenodd" clip-rule="evenodd" d="M41.7774 10.73L23.0572 19.7393C21.3713 20.5507 19.4034 20.5292 17.7357 19.6811L0.113754 10.7203L1.02029 8.93756L18.6422 17.8984C19.754 18.4637 21.0659 18.4781 22.1899 17.9372L40.9101 8.92786L41.7774 10.73Z" fill="#EC4899"/>
</svg>
