<svg width="42" height="42" viewBox="0 0 42 42" fill="none" xmlns="http://www.w3.org/2000/svg">
<g id="home">
<path id="Rectangle 4229" d="M1 20.2243C1 16.8815 1 15.2101 1.78202 13.7409C2.56405 12.2717 4.0327 11.184 6.97001 9.00851L9.81932 6.89822C15.1285 2.96607 17.7831 1 20.9451 1C24.1072 1 26.7618 2.96607 32.071 6.89822L34.9203 9.00851C37.8576 11.184 39.3262 12.2717 40.1083 13.7409C40.8903 15.2101 40.8903 16.8815 40.8903 20.2243V30.6642C40.8903 35.3066 40.8903 37.6278 39.2212 39.07C37.5521 40.5122 34.8658 40.5122 29.4931 40.5122H12.3972C7.02452 40.5122 4.33817 40.5122 2.66908 39.07C1 37.6278 1 35.3066 1 30.6642V20.2243Z" stroke="#EC4899" stroke-width="2"/>
<path id="Vector 463" d="M27.5935 40.5121V26.6951C27.5935 26.1428 27.1458 25.6951 26.5935 25.6951H15.2968C14.7445 25.6951 14.2968 26.1428 14.2968 26.6951V40.5121" stroke="#EC4899" stroke-width="2" stroke-linecap="round" stroke-linejoin="round"/>
</g>
</svg>
