<svg width="24" height="24" viewBox="0 0 24 24" fill="none" xmlns="http://www.w3.org/2000/svg">
<g id="top">
<g id="Environment / Moon" opacity="0.5" clip-path="url(#clip0_5_47)">
<path id="Rectangle 4219" d="M0 5C0 2.23858 2.23858 0 5 0H19C21.7614 0 24 2.23858 24 5V19C24 21.7614 21.7614 24 19 24H5C2.23858 24 0 21.7614 0 19V5Z" fill="#6366F1"/>
</g>
<path id="Vector 9" d="M12 4L11.6464 3.64645L12 3.29289L12.3536 3.64645L12 4ZM12.5 19C12.5 19.2761 12.2761 19.5 12 19.5C11.7239 19.5 11.5 19.2761 11.5 19L12.5 19ZM5.64645 9.64645L11.6464 3.64645L12.3536 4.35355L6.35355 10.3536L5.64645 9.64645ZM12.3536 3.64645L18.3536 9.64645L17.6464 10.3536L11.6464 4.35355L12.3536 3.64645ZM12.5 4L12.5 19L11.5 19L11.5 4L12.5 4Z" fill="#EC4899"/>
</g>
<defs>
<clipPath id="clip0_5_47">
<rect width="24" height="24" fill="white"/>
</clipPath>
</defs>
</svg>
